<svg width="640" height="520" viewBox="0 0 640 520" fill="none" xmlns="http://www.w3.org/2000/svg">
  <rect width="640" height="520" rx="48" fill="url(#bg)" />
  <circle cx="118" cy="98" r="92" fill="#60A5FA" fill-opacity="0.16" />
  <circle cx="544" cy="396" r="104" fill="#2DD4BF" fill-opacity="0.14" />
  <rect x="86" y="88" width="468" height="330" rx="32" fill="#0F172A" fill-opacity="0.9" stroke="#1E293B" />
  <rect x="122" y="134" width="180" height="44" rx="16" fill="url(#accent)" />
  <rect x="320" y="134" width="198" height="44" rx="16" fill="#1E293B" />
  <rect x="122" y="208" width="396" height="160" rx="24" fill="#111827" stroke="#1F2937" />
  <rect x="148" y="234" width="164" height="112" rx="18" fill="#F8FAFC" />
  <rect x="336" y="234" width="156" height="18" rx="9" fill="#334155" />
  <rect x="336" y="268" width="118" height="18" rx="9" fill="#334155" />
  <rect x="336" y="302" width="88" height="18" rx="9" fill="#334155" />
  <rect x="148" y="258" width="116" height="20" rx="10" fill="#1890FF" />
  <rect x="148" y="294" width="90" height="16" rx="8" fill="#93C5FD" />
  <rect x="122" y="396" width="118" height="10" rx="5" fill="#334155" />
  <rect x="250" y="396" width="76" height="10" rx="5" fill="#0EA5E9" />
  <rect x="336" y="396" width="142" height="10" rx="5" fill="#334155" />
  <text x="122" y="78" fill="#0F172A" font-size="28" font-family="Segoe UI, PingFang SC, sans-serif" font-weight="700">ssq-ui</text>
  <text x="122" y="110" fill="#475569" font-size="16" font-family="Segoe UI, PingFang SC, sans-serif">Vue 3 组件库 · 主题定制 · 按需导入</text>
  <defs>
    <linearGradient id="bg" x1="46" y1="36" x2="610" y2="486" gradientUnits="userSpaceOnUse">
      <stop stop-color="#EFF6FF" />
      <stop offset="0.55" stop-color="#F8FAFC" />
      <stop offset="1" stop-color="#ECFEFF" />
    </linearGradient>
    <linearGradient id="accent" x1="122" y1="134" x2="302" y2="178" gradientUnits="userSpaceOnUse">
      <stop stop-color="#1890FF" />
      <stop offset="1" stop-color="#0F766E" />
    </linearGradient>
  </defs>
</svg>
