<svg width="64" height="64" viewBox="0 0 64 64" fill="none" xmlns="http://www.w3.org/2000/svg">
  <rect width="64" height="64" rx="18" fill="#0F172A" />
  <rect x="10" y="12" width="44" height="40" rx="14" fill="url(#paint0_linear)" />
  <path d="M20 25C20 22.7909 21.7909 21 24 21H40C42.2091 21 44 22.7909 44 25C44 27.2091 42.2091 29 40 29H24C21.7909 29 20 27.2091 20 25Z" fill="white" fill-opacity="0.96" />
  <path d="M20 39C20 36.7909 21.7909 35 24 35H34C36.2091 35 38 36.7909 38 39C38 41.2091 36.2091 43 34 43H24C21.7909 43 20 41.2091 20 39Z" fill="#E0F2FE" />
  <circle cx="45" cy="39" r="7" fill="#DBEAFE" />
  <defs>
    <linearGradient id="paint0_linear" x1="14" y1="16" x2="50" y2="48" gradientUnits="userSpaceOnUse">
      <stop stop-color="#1890FF" />
      <stop offset="1" stop-color="#0F766E" />
    </linearGradient>
  </defs>
</svg>
